<svg width="40" height="40" viewBox="0 0 40 40" fill="none" xmlns="http://www.w3.org/2000/svg">
<path d="M0 4C0 1.79086 1.79086 0 4 0H36C38.2091 0 40 1.79086 40 4V36C40 38.2091 38.2091 40 36 40H4C1.79086 40 0 38.2091 0 36V4Z" fill="#228BE6"/>
<path fill-rule="evenodd" clip-rule="evenodd" d="M11.5965 24.0627L15.9383 28.4045C16.322 28.7885 16.8426 29.0042 17.3854 29.0042C17.9282 29.0042 18.4488 28.7885 18.8325 28.4045L20.7493 26.4877C20.9139 26.3232 21.0176 26.1077 21.0434 25.8764L21.0945 25.4193C21.1483 24.9461 21.5216 24.5727 21.9948 24.5189V24.5189C22.4679 24.4647 22.8411 24.0915 22.8952 23.6185V23.6185C22.9494 23.1455 23.3226 22.7723 23.7956 22.7181L24.2528 22.6671C24.4835 22.6414 24.6987 22.538 24.863 22.374L25.3332 21.9038C25.7172 21.5201 25.9329 20.9995 25.9329 20.4567C25.9329 19.9139 25.7172 19.3933 25.3332 19.0096L21.0004 14.6558C20.6167 14.2718 20.0961 14.0561 19.5533 14.0561C19.0105 14.0561 18.4899 14.2718 18.1062 14.6558L17.636 15.126C17.472 15.2903 17.3686 15.5055 17.3429 15.7362L17.2989 16.1984C17.2447 16.6714 16.8715 17.0446 16.3985 17.0988V17.0988C15.9255 17.1529 15.5523 17.5261 15.4981 17.9992V17.9992C15.4443 18.4724 15.071 18.8457 14.5978 18.8995L14.1406 18.9506C13.9094 18.9764 13.6938 19.0801 13.5293 19.2447L11.5965 21.1685C11.2126 21.5522 10.9968 22.0728 10.9968 22.6156C10.9968 23.1584 11.2126 23.679 11.5965 24.0627Z" stroke="#E7F5FF" stroke-width="1.5" stroke-linecap="round" stroke-linejoin="round"/>
<path fill-rule="evenodd" clip-rule="evenodd" d="M24.8793 12.7434L26.3266 11.2961C26.7263 10.8964 27.3743 10.8964 27.774 11.2961L28.7049 12.227C29.1046 12.6267 29.1046 13.2747 28.7049 13.6743L27.2576 15.1217L24.8793 12.7434Z" stroke="#E7F5FF" stroke-width="1.5" stroke-linecap="round" stroke-linejoin="round"/>
<path fill-rule="evenodd" clip-rule="evenodd" d="M25.3469 13.2122L26.7943 14.6595C27.9886 15.8577 27.9886 17.7963 26.7943 18.9945L26.778 19.0107C26.3873 19.4014 25.7539 19.4014 25.3632 19.0107L20.9893 14.6369C20.5987 14.2462 20.5987 13.6128 20.9893 13.2221L21.0056 13.2058C22.2063 12.009 24.1498 12.0119 25.3469 13.2122Z" stroke="#E7F5FF" stroke-width="1.5" stroke-linecap="round" stroke-linejoin="round"/>
</svg>
