<svg width="40" height="40" viewBox="0 0 40 40" fill="none" xmlns="http://www.w3.org/2000/svg">
<path d="M0 4C0 1.79086 1.79086 0 4 0H36C38.2091 0 40 1.79086 40 4V36C40 38.2091 38.2091 40 36 40H4C1.79086 40 0 38.2091 0 36V4Z" fill="#40C057"/>
<path d="M16.9988 14.9979C16.9988 13.3403 18.3425 11.9966 20 11.9966C21.6576 11.9966 23.0013 13.3403 23.0013 14.9979C23.3993 14.5999 23.9391 14.3763 24.5019 14.3763C25.0647 14.3763 25.6045 14.5999 26.0025 14.9979" stroke="#EBFBEE" stroke-width="1.5" stroke-linecap="round" stroke-linejoin="round"/>
<path d="M16.9988 21.0004C16.9988 19.3429 18.3425 17.9991 20 17.9991C21.6576 17.9991 23.0013 19.3429 23.0013 21.0004" stroke="#EBFBEE" stroke-width="1.5" stroke-linecap="round" stroke-linejoin="round"/>
<path d="M20 17.9991C19.9998 16.4789 18.863 15.1988 17.3534 15.019C15.8438 14.8391 14.4381 15.8164 14.0808 17.294C14.0474 17.4331 13.9531 17.5497 13.8242 17.6116C13.6952 17.6734 13.5453 17.6739 13.4159 17.6129C12.6408 17.2984 11.7515 17.5734 11.2893 18.2706C10.827 18.9677 10.9198 19.8939 11.5112 20.4854L12.1921 21.1664" stroke="#EBFBEE" stroke-width="1.5" stroke-linecap="round" stroke-linejoin="round"/>
<path d="M26.0024 14.9979C26.6557 15.6452 26.8136 16.6414 26.3926 17.4589" stroke="#EBFBEE" stroke-width="1.5" stroke-linecap="round" stroke-linejoin="round"/>
<path fill-rule="evenodd" clip-rule="evenodd" d="M27.8032 26.6028V26.6028C26.6696 28.1142 24.8905 29.0038 23.0012 29.0038H16.9987C15.1094 29.0038 13.3303 28.1142 12.1967 26.6028V26.6028C11.4175 25.5638 10.9962 24.3 10.9962 23.0013V23.0013C10.9962 21.8962 11.892 21.0004 12.997 21.0004H27.0029C28.1079 21.0004 29.0037 21.8962 29.0037 23.0013V23.0013C29.0037 24.3 28.5825 25.5638 27.8032 26.6028V26.6028Z" stroke="#EBFBEE" stroke-width="1.5" stroke-linecap="round" stroke-linejoin="round"/>
<path d="M27.9862 21.2686C28.5799 20.4552 28.9006 19.4745 28.9022 18.4675V17.8672C28.9022 17.5357 28.6335 17.267 28.302 17.267H27.7016C25.4638 17.2692 23.5248 18.8183 23.0286 21.0004" stroke="#EBFBEE" stroke-width="1.5" stroke-linecap="round" stroke-linejoin="round"/>
</svg>
