<svg width="40" height="40" viewBox="0 0 40 40" fill="none" xmlns="http://www.w3.org/2000/svg">
<path d="M0 4C0 1.79086 1.79086 0 4 0H36C38.2091 0 40 1.79086 40 4V36C40 38.2091 38.2091 40 36 40H4C1.79086 40 0 38.2091 0 36V4Z" fill="#12B886"/>
<path d="M13.7493 22.7506C13.6114 22.7509 13.4998 22.863 13.5 23.0011C13.5002 23.1391 13.6122 23.2508 13.7502 23.2507C13.8882 23.2506 14 23.1386 14 23.0006C13.9997 22.8624 13.8875 22.7505 13.7493 22.7506" stroke="#E6FCF5" stroke-width="1.5" stroke-linecap="round" stroke-linejoin="round"/>
<path d="M18 21.5003C18.8284 21.5003 19.5 22.172 19.5 23.0006C19.5 23.8292 18.8284 24.5009 18 24.5009C17.1716 24.5009 16.5 23.8292 16.5 23.0006C16.5 22.172 17.1716 21.5003 18 21.5003" stroke="#E6FCF5" stroke-width="1.5" stroke-linecap="round" stroke-linejoin="round"/>
<path fill-rule="evenodd" clip-rule="evenodd" d="M25 20V26.0012C25 27.106 24.1045 28.0017 23 28.0017H12.9989C12.4686 28.0015 11.9601 27.7907 11.5852 27.4155C11.2104 27.0404 10.9999 26.5316 11 26.0012V19.9989C11.0001 19.4685 11.2109 18.9599 11.586 18.5849C11.9611 18.21 12.4697 17.9994 13 17.9996H23.0011C23.5314 17.9997 24.0399 18.2106 24.4148 18.5857C24.7896 18.9609 25.0001 19.4696 25 20Z" stroke="#E6FCF5" stroke-width="1.5" stroke-linecap="round" stroke-linejoin="round"/>
<path d="M22.2506 23.2507C22.3886 23.2503 22.5002 23.1382 22.5 23.0002C22.4998 22.8622 22.3878 22.7505 22.2498 22.7506C22.1118 22.7507 22 22.8626 22 23.0006C22.0003 23.1389 22.1125 23.2507 22.2507 23.2507" stroke="#E6FCF5" stroke-width="1.5" stroke-linecap="round" stroke-linejoin="round"/>
<path d="M14.1979 17.9996L15.4082 13.4816L15.4085 13.4806C15.5459 12.9683 15.8811 12.5316 16.3404 12.2665C16.7997 12.0014 17.3455 11.9297 17.8577 12.0671L27.5169 14.6558L27.5179 14.6561C28.0301 14.7935 28.4668 15.1288 28.7318 15.5882C28.9968 16.0476 29.0685 16.5935 28.9311 17.1058L27.3782 22.9026C27.0988 23.941 26.0473 24.5715 24.9999 24.3287" stroke="#E6FCF5" stroke-width="1.5" stroke-linecap="round" stroke-linejoin="round"/>
</svg>
