<svg width="40" height="40" viewBox="0 0 40 40" fill="none" xmlns="http://www.w3.org/2000/svg">
<path d="M0 4C0 1.79086 1.79086 0 4 0H36C38.2091 0 40 1.79086 40 4V36C40 38.2091 38.2091 40 36 40H4C1.79086 40 0 38.2091 0 36V4Z" fill="#E64980"/>
<path d="M12 27V13C12 11.8954 12.8954 11 14 11H27C27.5523 11 28 11.4477 28 12V24C28 24.5523 27.5523 25 27 25H14C12.8954 25 12 25.8954 12 27V27C12 28.1046 12.8954 29 14 29H28" stroke="#FFF0F6" stroke-width="1.5" stroke-linecap="round" stroke-linejoin="round"/>
<path d="M26 29V25" stroke="#FFF0F6" stroke-width="1.5" stroke-linecap="round" stroke-linejoin="round"/>
<path d="M24 16H16" stroke="#FFF0F6" stroke-width="1.5" stroke-linecap="round" stroke-linejoin="round"/>
<path d="M24 20H16" stroke="#FFF0F6" stroke-width="1.5" stroke-linecap="round" stroke-linejoin="round"/>
</svg>
