<svg width="40" height="40" viewBox="0 0 40 40" fill="none" xmlns="http://www.w3.org/2000/svg">
<path d="M0 4C0 1.79086 1.79086 0 4 0H36C38.2091 0 40 1.79086 40 4V36C40 38.2091 38.2091 40 36 40H4C1.79086 40 0 38.2091 0 36V4Z" fill="#FD7E14"/>
<path fill-rule="evenodd" clip-rule="evenodd" d="M21.9779 15.3845L24.6151 18.0217L18.0214 24.6154L15.3842 21.9782L21.9779 15.3845Z" stroke="#FFF4E6" stroke-width="1.5" stroke-linecap="round" stroke-linejoin="round"/>
<path fill-rule="evenodd" clip-rule="evenodd" d="M11.4285 19.3403C11.7925 18.9764 12.3826 18.9764 12.7465 19.3403L20.6594 27.2532C21.0234 27.6171 21.0234 28.2072 20.6594 28.5712L19.9995 29.2311C19.6356 29.595 19.0455 29.595 18.6815 29.2311L10.7687 21.3182C10.4047 20.9543 10.4047 20.3641 10.7687 20.0002L11.4285 19.3403Z" stroke="#FFF4E6" stroke-width="1.5" stroke-linecap="round" stroke-linejoin="round"/>
<path fill-rule="evenodd" clip-rule="evenodd" d="M11.4287 23.2971C11.7927 22.9331 12.3828 22.9331 12.7468 23.2971L16.7038 27.2541C17.0678 27.6181 17.0678 28.2082 16.7038 28.5721L16.044 29.232C15.68 29.596 15.0899 29.596 14.7259 29.232L10.7689 25.2749C10.4049 24.911 10.4049 24.3209 10.7689 23.9569L11.4287 23.2971Z" stroke="#FFF4E6" stroke-width="1.5" stroke-linecap="round" stroke-linejoin="round"/>
<path fill-rule="evenodd" clip-rule="evenodd" d="M28.5711 20.6604C28.2072 21.0243 27.6171 21.0243 27.2531 20.6604L19.3403 12.7475C18.9763 12.3836 18.9763 11.7935 19.3403 11.4295L20.0001 10.7696C20.3641 10.4057 20.9542 10.4057 21.3181 10.7696L29.231 18.6825C29.5949 19.0464 29.5949 19.6366 29.231 20.0005L28.5711 20.6604Z" stroke="#FFF4E6" stroke-width="1.5" stroke-linecap="round" stroke-linejoin="round"/>
<path fill-rule="evenodd" clip-rule="evenodd" d="M28.5715 16.7029C28.2075 17.0669 27.6174 17.0669 27.2535 16.7029L23.2964 12.7459C22.9324 12.3819 22.9324 11.7918 23.2964 11.4279L23.9563 10.768C24.3202 10.404 24.9103 10.404 25.2743 10.768L29.2313 14.7251C29.5953 15.089 29.5953 15.6791 29.2313 16.0431L28.5715 16.7029Z" stroke="#FFF4E6" stroke-width="1.5" stroke-linecap="round" stroke-linejoin="round"/>
</svg>
